<svg width="62" height="76" viewBox="0 0 62 76" fill="none" xmlns="http://www.w3.org/2000/svg">
<g clip-path="url(#clip0_24_513)">
<path d="M26.9889 55.9206C39.7444 55.9206 50.0847 45.0605 50.0847 31.6639C50.0847 18.2672 39.7444 7.4071 26.9889 7.4071C14.2335 7.4071 3.89322 18.2672 3.89322 31.6639C3.89322 45.0605 14.2335 55.9206 26.9889 55.9206Z" stroke="#83284E" stroke-width="2.856" stroke-miterlimit="10"/>
<path d="M35.1008 32.6283C35.1008 32.6283 25.9511 31.7872 24.1672 37.4C24.1672 37.3944 30.4839 41.454 35.1008 32.6283Z" fill="#83284E"/>
<path d="M27.7799 25.9277C27.7799 25.9277 21.5811 32.7068 24.975 37.5178C24.9806 37.5178 32.0322 34.9385 27.7799 25.9277Z" fill="#83284E"/>
<path d="M16.8071 17.9206C21.7581 17.9206 25.7716 13.9089 25.7716 8.96031C25.7716 4.01167 21.7581 0 16.8071 0C11.8561 0 7.84256 4.01167 7.84256 8.96031C7.84256 13.9089 11.8561 17.9206 16.8071 17.9206Z" fill="#312782"/>
<path d="M12.409 60.7877C17.36 60.7877 21.3735 56.776 21.3735 51.8274C21.3735 46.8787 17.36 42.8671 12.409 42.8671C7.45802 42.8671 3.44446 46.8787 3.44446 51.8274C3.44446 56.776 7.45802 60.7877 12.409 60.7877Z" fill="#FFEC00"/>
<path d="M51.7508 43.1642C56.7018 43.1642 60.7154 39.1526 60.7154 34.2039C60.7154 29.2553 56.7018 25.2436 51.7508 25.2436C46.7998 25.2436 42.7863 29.2553 42.7863 34.2039C42.7863 39.1526 46.7998 43.1642 51.7508 43.1642Z" fill="#E5007E"/>
<path d="M5.87912 64.3875C5.43594 64.8305 5.11618 65.1893 4.91422 65.4753C4.71227 65.7612 4.4991 66.165 4.26909 66.6976C4.09519 67.0789 3.97177 67.4883 3.89323 67.9144C3.79786 68.2901 3.74738 68.7779 3.74738 69.3723C3.74738 70.2078 3.82591 70.9087 3.9886 71.4638C4.14568 72.0245 4.3869 72.445 4.69544 72.731C5.00959 73.017 5.38545 73.1571 5.82863 73.1571C6.18766 73.1571 6.5523 73.0282 6.92816 72.7646C7.30402 72.5011 7.64061 72.1591 7.94354 71.7329C8.24647 71.3068 8.4933 70.8358 8.67843 70.3087C8.86355 69.7872 8.95892 69.2826 8.95892 68.7947C8.95892 67.92 8.65599 67.006 8.05574 66.0528C7.83134 65.6715 7.71915 65.408 7.71915 65.2678C7.71915 65.0043 7.865 64.7463 8.1511 64.4828C8.47647 64.1688 8.85233 63.894 9.27307 63.6473C9.69381 63.4062 10.0248 63.2829 10.2716 63.2829C10.4119 63.2829 10.5633 63.3165 10.7148 63.3838C10.8719 63.4511 10.9897 63.5352 11.0738 63.6361C11.2758 63.8492 11.4497 64.2361 11.5843 64.8024C11.719 65.3687 11.7863 65.9687 11.7863 66.5967C11.7863 68.1051 11.4777 69.4956 10.8607 70.7685C10.2436 72.0413 9.40771 73.0506 8.34745 73.7964C7.28719 74.5421 6.14278 74.9122 4.90861 74.9122C4.19616 74.9122 3.49493 74.7832 2.79931 74.5197C2.10369 74.2562 1.5371 73.9085 1.09953 73.4655C0.36464 72.7366 0 71.7722 0 70.5834C0 69.8938 0.134636 69.1648 0.403909 68.391C0.673181 67.6172 1.04343 66.8659 1.50905 66.1369C1.98028 65.408 2.52443 64.7351 3.14151 64.1296C3.7586 63.524 4.39251 63.0418 5.04325 62.6941C5.63789 62.3745 6.27742 62.1166 6.96182 61.9259C7.64622 61.7353 8.24647 61.64 8.76258 61.64C9.49186 61.64 9.8565 61.7521 9.8565 61.9764C9.8565 62.0661 9.77796 62.2007 9.62649 62.3857C9.346 62.6493 9.09917 62.8343 8.8916 62.9408C8.68404 63.0474 8.34184 63.1707 7.87061 63.3053C7.36012 63.4567 6.98987 63.5969 6.75986 63.7202C6.52986 63.8436 6.23254 64.0679 5.87912 64.3875Z" fill="#83284E"/>
<path d="M17.9234 70.8245L17.5139 71.688C17.1381 72.4618 16.7903 73.0955 16.4817 73.5777C16.1676 74.0655 15.8758 74.4075 15.6066 74.6094C15.3373 74.8113 15.0512 74.9122 14.7539 74.9122C14.4453 74.9122 14.1761 74.7832 13.9461 74.5197C13.4973 73.9982 13.1214 73.0001 12.8241 71.5423C12.5885 70.3591 12.4707 69.3442 12.4707 68.4863C12.4707 67.8135 12.5492 67.2808 12.7007 66.8827C12.8521 66.4846 13.0934 66.1874 13.4187 66.0023C13.7441 65.8117 14.1705 65.722 14.6922 65.722C14.9671 65.722 15.169 65.7724 15.2924 65.8678C15.4158 65.9631 15.5 66.1537 15.5449 66.4453C15.5897 66.7313 15.6122 67.1686 15.6122 67.7462C15.6122 68.8059 15.6627 69.804 15.7693 70.746C15.7805 70.7965 15.8141 71.0544 15.8646 71.5142H15.9151C15.96 71.4189 15.9937 71.3404 16.0217 71.2843C16.0498 71.2282 16.0722 71.1666 16.1002 71.1105C16.1283 71.0544 16.1507 70.9984 16.1732 70.9535C16.1956 70.9086 16.2237 70.8357 16.2629 70.746C16.5995 69.9778 16.9585 69.0975 17.3288 68.0994C17.7551 66.9556 18.0525 66.2603 18.2095 66.0079C18.2544 65.9519 18.3161 65.8846 18.3891 65.8173C18.6976 65.593 19.1352 65.4809 19.7018 65.4809C20.0047 65.4809 20.2235 65.5369 20.3749 65.6491C20.5208 65.7612 20.6218 65.9463 20.6779 66.2098C20.734 66.4733 20.7676 66.9051 20.7789 67.5051C20.7789 67.9817 20.8349 68.6545 20.9471 69.5124C21.0593 70.3703 21.1828 71.1385 21.3174 71.8058C21.3623 72.0357 21.4576 72.473 21.6035 73.1179H21.654C21.7942 72.6973 21.8896 72.3665 21.9401 72.131C22.1252 71.318 22.215 70.1517 22.215 68.6265V68.1948C22.215 67.7406 22.2542 67.3761 22.3384 67.107C22.4225 66.8378 22.5684 66.5855 22.7816 66.3668C23.006 66.1425 23.264 65.9575 23.5557 65.8173C23.8474 65.6715 24.1055 65.6042 24.3299 65.6042C24.5935 65.6042 24.7787 65.7108 24.8909 65.9182C25.0031 66.1257 25.0592 66.4621 25.0592 66.9275C25.0592 67.9761 24.8404 69.2825 24.4084 70.847C24.0326 72.1815 23.5389 73.4094 22.9218 74.5365C22.7255 74.8898 22.5291 75.1757 22.344 75.4C22.1589 75.6243 21.9681 75.7813 21.7718 75.8766C21.5754 75.9719 21.3454 76.0168 21.093 76.0168C20.1842 76.0168 19.4437 75.4337 18.8603 74.273C18.6864 73.9141 18.5349 73.5104 18.4003 73.0562C18.2656 72.602 18.1478 72.0749 18.0525 71.4806C18.0188 71.3796 17.9964 71.1666 17.9739 70.847H17.9234V70.8245Z" fill="#83284E"/>
<path d="M32.1725 65.1613C33.1261 65.1613 33.603 65.2734 33.603 65.4977C33.603 65.7556 33.3898 65.8902 32.9635 65.907C32.4473 65.9407 31.9649 66.0864 31.5161 66.35C31.0673 66.6135 30.669 66.9724 30.3212 67.421C29.9734 67.8751 29.6985 68.3854 29.5078 68.9517C29.3114 69.518 29.2161 70.118 29.2161 70.7516C29.2161 71.4469 29.3788 72.0076 29.7041 72.4338C30.0295 72.8599 30.4559 73.073 30.9776 73.073C31.4656 73.073 31.8864 72.8263 32.251 72.3273C32.6156 71.8282 32.7952 71.2451 32.7952 70.5834C32.7952 70.0395 32.683 69.5293 32.453 69.0526C32.223 68.576 31.8976 68.1779 31.46 67.8471C31.2749 67.7013 31.1795 67.5948 31.1795 67.5331C31.1795 67.4434 31.3085 67.3088 31.5722 67.1238C31.8639 66.9275 32.1949 66.7593 32.5595 66.6247C32.9242 66.4902 33.2327 66.4229 33.4796 66.4229C33.7657 66.4229 34.0405 66.4958 34.2986 66.6472C34.5566 66.7986 34.7867 67.0116 34.983 67.292C35.1793 67.5724 35.3308 67.892 35.4374 68.2508C35.544 68.6097 35.5945 68.9966 35.5945 69.4059C35.5945 70.0844 35.4654 70.7516 35.213 71.4133C34.9549 72.0749 34.624 72.6076 34.2088 73.0169C33.6703 73.5328 33.0252 73.9589 32.2678 74.2842C31.5105 74.615 30.7924 74.7776 30.108 74.7776C29.4405 74.7776 28.7841 74.6598 28.1278 74.43C27.4714 74.2001 26.9553 73.8973 26.5682 73.5216C26.0577 73.0113 25.7997 72.288 25.7997 71.346C25.7997 70.6058 25.9848 69.8657 26.3438 69.1255C26.7085 68.3854 27.2021 67.7125 27.8248 67.107C28.4475 66.5014 29.1319 66.0304 29.8836 65.6771C30.6354 65.3239 31.4095 65.1613 32.1725 65.1613Z" fill="#83284E"/>
<path d="M39.3755 71.8787L39.3362 72.0693C39.3362 72.1759 39.325 72.3329 39.297 72.5403C39.2745 72.8543 39.2353 73.1067 39.1904 73.3085C39.1455 73.5048 39.0782 73.673 38.9884 73.8019C38.8987 73.9309 38.7753 74.0711 38.6238 74.2169C38.1582 74.643 37.6869 74.8617 37.2157 74.8617C36.8342 74.8617 36.5481 74.7215 36.3686 74.4412C36.1891 74.1608 36.0938 73.7066 36.0938 73.0786C36.0938 72.5796 36.1499 71.9684 36.262 71.2338C36.3742 70.5049 36.5089 69.8489 36.6716 69.2657L36.7501 69.019C36.7501 68.9798 36.7669 68.9013 36.8062 68.7779C37.0418 67.9088 37.2606 67.264 37.4569 66.849C37.6533 66.4285 37.8945 66.092 38.175 65.8397C38.4218 65.6435 38.7079 65.5425 39.0165 65.5425C39.4709 65.5425 39.7458 65.8173 39.8411 66.3668C39.9309 66.2883 40.015 66.1986 40.0992 66.0977C40.2843 65.8734 40.4302 65.7276 40.5311 65.6547C40.6321 65.5818 40.7499 65.5425 40.8846 65.5425C41.4343 65.5425 41.7092 66.0864 41.7092 67.1742C41.7092 67.7686 41.6475 68.3405 41.5185 68.9013C41.3894 69.4564 41.2268 69.9105 41.036 70.2638C40.8397 70.6171 40.6489 70.7909 40.4582 70.7909C40.245 70.7909 40.1441 70.3928 40.1441 69.5909C40.1441 69.1704 40.1216 68.8396 40.0711 68.5985C40.0262 68.3574 39.9477 68.1723 39.8467 68.0377C39.656 68.3966 39.5326 69.2153 39.4709 70.4937C39.426 71.2226 39.3923 71.688 39.3755 71.8787Z" fill="#83284E"/>
<path d="M47.6668 67.634C47.9249 66.9107 48.1381 66.1593 48.3064 65.3687C48.4803 64.5781 48.5644 63.9725 48.5644 63.552C48.5644 63.4342 48.5308 63.3782 48.4691 63.3782C48.3681 63.3782 48.1886 63.6081 47.9305 64.0623C47.6725 64.5164 47.4593 64.9818 47.291 65.4584C46.9207 66.5014 46.6346 67.3649 46.4327 68.049C46.2307 68.7387 46.0905 69.3106 46.0175 69.776C45.939 70.2414 45.8997 70.718 45.8997 71.2058C45.8997 71.6208 45.9446 71.9235 46.04 72.1142C46.1354 72.3048 46.2812 72.4002 46.4832 72.4002C46.8366 72.4002 47.2293 72.2432 47.6612 71.9348C48.0932 71.6264 48.4915 71.217 48.8393 70.7124C49.1142 70.3367 49.3274 70.1461 49.4844 70.1461C49.6808 70.1461 49.7818 70.3031 49.7818 70.6171C49.7818 71.3012 49.5686 71.9684 49.1366 72.6188C48.7103 73.2693 48.1549 73.7964 47.4817 74.2057C46.8085 74.615 46.1185 74.8113 45.4173 74.8113C44.5534 74.8113 43.8521 74.5421 43.308 73.9982C42.7638 73.4543 42.4946 72.7478 42.4946 71.8731C42.4946 71.1554 42.646 70.3199 42.9546 69.3555C43.2631 68.391 43.6726 67.4266 44.1887 66.4509C44.7048 65.4753 45.2658 64.5949 45.8829 63.7987C46.4944 63.0081 47.1059 62.3969 47.7061 61.9764C48.0764 61.7016 48.4915 61.567 48.9459 61.567C49.2937 61.567 49.6022 61.6736 49.8827 61.8867C50.1632 62.0997 50.382 62.3969 50.5335 62.7838C50.6849 63.1707 50.7635 63.5912 50.7635 64.0566C50.7635 65.0603 50.5671 66.0416 50.1744 67.0004C49.7818 67.9593 49.232 68.7891 48.5308 69.49C48.1998 69.8265 47.88 70.0956 47.5715 70.2862C47.2629 70.4769 46.9937 70.5722 46.7637 70.5722C46.5393 70.5722 46.4271 70.4881 46.4271 70.3143C46.4271 70.219 46.5112 70.0339 46.6795 69.7704C46.9039 69.4171 47.1676 68.8901 47.4649 68.1779C47.4929 68.105 47.521 68.0322 47.549 67.9537C47.5827 67.8864 47.622 67.7742 47.6668 67.634Z" fill="#83284E"/>
<path d="M57.8768 66.036L57.9721 65.6435C58.1685 64.7688 58.348 64.0623 58.5107 63.5184C58.6678 62.9801 58.8361 62.5203 59.0043 62.1502C59.1726 61.7745 59.3409 61.5054 59.5092 61.3428C59.7785 61.0568 60.261 60.911 60.9566 60.911C61.2651 60.911 61.4895 60.9278 61.641 60.9615C61.7924 60.9951 61.9102 61.0512 62 61.1353C61.6915 62.0885 61.4783 62.8006 61.3605 63.2772C61.2427 63.7539 61.1136 64.4043 60.9734 65.2342C60.7546 66.5911 60.648 67.8135 60.648 68.9069C60.648 69.6302 60.7097 70.376 60.8275 71.1554C60.9454 71.9292 61.1361 72.7983 61.4054 73.7459C61.0688 73.9814 60.7434 74.1833 60.4349 74.3515C60.1263 74.5197 59.829 74.6487 59.5541 74.744C59.2736 74.8393 59.0324 74.8898 58.8192 74.8898C58.449 74.8898 58.1853 74.7103 58.0338 74.3459C57.9048 74.0431 57.8207 73.802 57.787 73.6225C57.7477 73.4431 57.6804 72.9328 57.5851 72.103C56.7267 73.0001 55.9077 73.701 55.1279 74.2169C54.3426 74.7328 53.7199 74.9907 53.2543 74.9907C52.7157 74.9907 52.2781 74.772 51.9359 74.3347C51.5937 73.8973 51.4254 73.331 51.4254 72.6413C51.4254 72.0245 51.5601 71.3348 51.8237 70.5778C52.0874 69.8209 52.4577 69.0863 52.9233 68.3798C53.2318 67.9144 53.546 67.5163 53.8657 67.1967C54.1855 66.8771 54.5557 66.5743 54.9653 66.2995C55.7058 65.8117 56.3285 65.5706 56.8277 65.5706C57.0577 65.5538 57.4111 65.7164 57.8768 66.036ZM57.5794 70.5834V70.0283C57.2541 70.3143 57.0128 70.4601 56.8502 70.4601C56.7604 70.4601 56.7155 70.4152 56.7155 70.3255C56.7155 70.2862 56.7324 70.2077 56.7716 70.0844C56.9063 69.7031 56.9736 69.333 56.9736 68.9742C56.9736 68.4583 56.8614 67.92 56.637 67.3649C56.5416 67.0789 56.4238 66.9331 56.2836 66.9331C56.2106 66.9331 56.1545 66.9668 56.1097 67.0285C55.8965 67.2696 55.7001 67.6172 55.5038 68.0602C55.3075 68.5032 55.156 68.9854 55.027 69.5068C54.9035 70.0283 54.8418 70.4881 54.8418 70.8918C54.8418 71.6544 55.0718 72.0301 55.5319 72.0301C55.7619 72.0301 56.0704 71.8955 56.4575 71.6208C56.8502 71.3516 57.2204 71.0096 57.5794 70.5834Z" fill="#83284E"/>
</g>
<defs>
<clipPath id="clip0_24_513">
<rect width="62" height="76" fill="white"/>
</clipPath>
</defs>
</svg>
