<svg width="38" height="38" viewBox="0 0 38 38" fill="none" xmlns="http://www.w3.org/2000/svg">
<path d="M19 38C29.4934 38 38 29.4934 38 19C38 8.50659 29.4934 0 19 0C8.50659 0 0 8.50659 0 19C0 29.4934 8.50659 38 19 38Z" fill="#83284E"/>
<path d="M20.8473 18.2202V29.3845H16.6791V18.2202H15V14.8915H16.6791C16.6938 13.4039 16.8116 12.314 17.0031 11.6217C17.1946 10.9442 17.7101 10.3256 18.5202 9.79535C19.3302 9.26512 20.4349 9 21.8341 9C22.4085 9 23.0713 9.05891 23.8077 9.16202V12.4612C23.1891 12.4171 22.6884 12.3876 22.2907 12.3876C21.7015 12.3876 21.3186 12.5349 21.1271 12.8442C20.9357 13.1535 20.8473 13.6543 20.8473 14.3318V14.8767H23.469V18.2054H20.8473V18.2202Z" fill="white"/>
</svg>
