<svg width="38" height="38" viewBox="0 0 38 38" fill="none" xmlns="http://www.w3.org/2000/svg">
<path d="M19 38C29.4934 38 38 29.4934 38 19C38 8.50659 29.4934 0 19 0C8.50659 0 0 8.50659 0 19C0 29.4934 8.50659 38 19 38Z" fill="#83284E"/>
<path d="M19.2198 24.7263C16.1825 24.7263 13.7131 22.2569 13.7131 19.2196C13.7131 16.1823 16.1825 13.7129 19.2198 13.7129C22.2571 13.7129 24.7265 16.1823 24.7265 19.2196C24.7265 22.2569 22.2571 24.7263 19.2198 24.7263ZM19.2198 15.4767C17.1561 15.4767 15.477 17.1559 15.477 19.2196C15.477 21.2833 17.1561 22.9624 19.2198 22.9624C21.2835 22.9624 22.9627 21.2833 22.9627 19.2196C22.9627 17.1559 21.2835 15.4767 19.2198 15.4767Z" fill="white"/>
<path d="M25.7072 14.2601C26.2995 14.2601 26.7796 13.7799 26.7796 13.1876C26.7796 12.5954 26.2995 12.1152 25.7072 12.1152C25.115 12.1152 24.6348 12.5954 24.6348 13.1876C24.6348 13.7799 25.115 14.2601 25.7072 14.2601Z" fill="white"/>
<path d="M24.8817 31.4397H13.5544C9.93854 31.4397 7 28.4976 7 24.8853V13.5544C7 9.93854 9.94207 7 13.5544 7H24.8817C28.4976 7 31.4361 9.94207 31.4361 13.5544V24.8817C31.4397 28.4976 28.4976 31.4397 24.8817 31.4397ZM13.5544 9.06721C11.078 9.06721 9.06721 11.0815 9.06721 13.5544V24.8817C9.06721 27.3582 11.0815 29.3689 13.5544 29.3689H24.8817C27.3581 29.3689 29.3689 27.3546 29.3689 24.8817V13.5544C29.3689 11.078 27.3546 9.06721 24.8817 9.06721H13.5544Z" fill="white"/>
</svg>
